# xmcd
#
# Track frame offsets: 
#        150
#        16807
#        26247
#        35761
#        47615
#        57480
#        68963
#        86124
#        103685
#        117931
#
# Disc length: 1736 seconds
#
# Revision: 0
# Processed by: cddbd v1.5.2PL0 Copyright (c) Steve Scherf et al.
# Submitted via: ExactAudioCopy v1.3
#
DISCID=8906c60a
DTITLE=Stan Davis - Walking the Hathaway Road
DYEAR=2019
DGENRE=Blues
TTITLE0=Walking the Hathaway Road
TTITLE1=Helen's Husband
TTITLE2=No Upgrades
TTITLE3=My Wasband
TTITLE4=Look at Me
TTITLE5=Always Coming Home
TTITLE6=So Many Ways to Be
TTITLE7=All They Know
TTITLE8=Without You
TTITLE9=Get Digital
EXTD=
EXTT0=
EXTT1=
EXTT2=
EXTT3=
EXTT4=
EXTT5=
EXTT6=
EXTT7=
EXTT8=
EXTT9=
PLAYORDER=
